# xmcd
#
# Track frame offsets:
#	150
#	11408
#	35630
#	48325
#	89155
#	100145
#	113627
#	126400
#	139485
#	153227
#	166774
#	177971
#	195575
#	209244
#	224947
#	242503
#	255112
#	276680
#
# Disc length: 3859
#
# Revision: 1
# Processed by: cddbd v1.5.1PL0 Copyright (c) Steve Scherf et al.
# Submitted via: CDex 1.51
# Normalized: r0:DSETVAR1,TDELIM( - )
#
DISCID=110f1112
DTITLE=Various Artist - Blues Train
DYEAR=1900
DGENRE=Blues
TTITLE0=John Lee Hooker - Boom Boom
TTITLE1=B. B. King - The Thrill Is Gone
TTITLE2=Robert Cray - Too Man Cooks
TTITLE3=Albert King - I Got the Blues
TTITLE4=Wilbert Harrison - Kansas City
TTITLE5=Ray Charles - Baby Let Me Hold Your Hand
TTITLE6=Rufus Thomas - Bear Cat
TTITLE7=Elmore James - Dust My Broom
TTITLE8=T. S. McPhee - Ain't Gonna Cry No More
TTITLE9=Louis Armstrong - I Gotta Right To Sing The Blues
TTITLE10=Jimmi Reed - Signals Of Love
TTITLE11=John Mayall and The Bluesbreakers - Telephone Blues
TTITLE12=Sonny Terry and Brownie McGhee - Don't Dog Your Woman
TTITLE13=Eric Clapton - Louise
TTITLE14=Katie Webster - Lord I Wonder
TTITLE15=T-Bone Walker - Stormy Monday Blues
TTITLE16=Luther Allison - Sweet Home Chicago
TTITLE17=Muddy Waters - Hoochie Coochie Man
EXTD=
EXTT0=
EXTT1=
EXTT2=
EXTT3=
EXTT4=
EXTT5=
EXTT6=
EXTT7=
EXTT8=
EXTT9=
EXTT10=
EXTT11=
EXTT12=
EXTT13=
EXTT14=
EXTT15=
EXTT16=
EXTT17=
PLAYORDER=
